# AST/ASF file generated using VICON BodyLanguage
# -----------------------------------------------
:version 1.10
:name VICON
:units
  mass 1.0
  length 0.1
  angle deg
:documentation
   .ast/.asf automatically generated from VICON data using
   VICON BodyBuilder and BodyLanguage model FULLBODY5.MOD
:root
   order TX TY TZ RZ RY RX
   axis XYZ
   position 0 0 0  
   orientation 0 -0 0 
:bonedata
  begin
     id 1 
     name lhipjoint
     direction 0.961525 -0.229516 0.150972 
     length 0.502153 
     axis 0 -0 0  XYZ
  end
  begin
     id 2 
     name lfemur
     direction 0.173648 -0.984808 0  
     length 1.83052  
     axis 0 -0 10  XYZ
    dof rx ry rz
    limits (-180.0 180.0)
           (-180.0 180.0)
           (-180.0 180.0)
  end
  begin
     id 3 
     name ltibia
     direction 0.173629 -0.984811 0   
     length 1.50296   
     axis 0 -0 10   XYZ
    dof rx ry rz
    limits (-180.0 180.0)
           (-180.0 180.0)
           (-180.0 180.0)
  end
  begin
     id 4 
     name lfoot
     direction 7.59329e-012 -0.227408 0.9738   
     length 0.574743   
     axis -90 -1.73656e-015 10   XYZ
    dof rx ry rz
    limits (-180.0 180.0)
           (-180.0 180.0)
           (-180.0 180.0)
  end
  begin
     id 5 
     name ltoes
     direction 7.79885e-012 -4.41741e-011 1   
     length 0.28489   
     axis -90 -1.73656e-015 10   XYZ
    dof rx ry rz
    limits (-180.0 180.0)
           (-180.0 180.0)
           (-180.0 180.0)
  end
  begin
     id 6 
     name rhipjoint
     direction -0.970498 -0.201437 0.132502   
     length 0.572149  
     axis 0 -0 0  XYZ 
  end
  begin
     id 7 
     name rfemur
     direction -0.173648 -0.984808 0   
     length 1.71866   
     axis 0 -0 -10   XYZ
    dof rx ry rz
    limits (-180.0 180.0)
           (-180.0 180.0)
           (-180.0 180.0)
  end
  begin
     id 8 
     name rtibia
     direction -0.173624 -0.984812 0   
     length 1.42623   
     axis 0 -0 -10   XYZ
    dof rx ry rz
    limits (-180.0 180.0)
           (-180.0 180.0)
           (-180.0 180.0)
 end
 begin
     id 9 
     name rfoot
     direction -7.12931e-012 -0.404275 0.914637   
     length 0.524692  
     axis -90 1.73656e-015 -10   XYZ
    dof rx ry rz
    limits (-180.0 180.0)
           (-180.0 180.0)
           (-180.0 180.0)
  end
  begin
     id 10 
     name rtoes
     direction -7.79289e-012 -4.41454e-011 1   
     length 0.254983   
     axis -90 1.73656e-015 -10   XYZ
    dof rx ry rz
    limits (-180.0 180.0)
           (-180.0 180.0)
           (-180.0 180.0)
  end
  begin
     id 11 
     name lowerback
     direction -0.0214086 0.993738 0.109665   
     length 0.417614   
     axis 0 -0 0   XYZ
    dof rx ry rz
    limits (-180.0 180.0)
           (-180.0 180.0)
           (-180.0 180.0)
  end
  begin
     id 12 
     name upperback
     direction 8.15962e-005 0.99996 0.00893412   
     length 0.419234   
     axis 0 -0 0   XYZ
    dof rx ry rz
    limits (-180.0 180.0)
           (-180.0 180.0)
           (-180.0 180.0)
  end
  begin
     id 13 
     name thorax
     direction 0.00826031 0.999067 -0.0423848   
     length 0.424697   
     axis 0 -0 0   XYZ
    dof rx ry rz
    limits (-180.0 180.0)
           (-180.0 180.0)
           (-180.0 180.0)
  end
  begin
     id 14 
     name lowerneck
     direction -0.0196262 0.994272 -0.105058   
     length 0.355877   
     axis 0 -0 0   XYZ
    dof rx ry rz
    limits (-180.0 180.0)
           (-180.0 180.0)
           (-180.0 180.0)
  end
  begin
     id 15 
     name upperneck
     direction 0.000117372 0.999091 0.0426261   
     length 0.351054   
     axis 0 -0 0   XYZ
    dof rx ry rz
    limits (-180.0 180.0)
           (-180.0 180.0)
           (-180.0 180.0)
  end
  begin
     id 16
     name head
     direction 0.00157618 0.999651 0.0263619  
     length 0.374844  
     axis 0 -0 0   XYZ
    dof rx ry rz
    limits (-180.0 180.0)
           (-180.0 180.0)
           (-180.0 180.0)
  end
  begin
     id 17 
     name lshoulderjoint
     direction 0.981627 -0.190809 0  
     length 0.701763  
     axis 0 -0 -11   XYZ
    dof rx ry rz
    limits (-180.0 180.0)
           (-180.0 180.0)
           (-180.0 180.0)
  end
  begin
     id 18 
     name lhumerus
     direction 0.48481 -0.87462 -1.80676e-026   
     length 0.994704   
     axis -180 5.14477e-009 -151   XYZ
    dof rx ry rz
    limits (-180.0 180.0)
           (-180.0 180.0)
           (-180.0 180.0)
  end
  begin
     id 19
     name lradius
     direction 0.48481 -0.87462 -3.2569e-026   
     length 0.617638   
     axis -180 5.14477e-009 -151   XYZ
    dof rx ry rz
    limits (-180.0 180.0)
           (-180.0 180.0)
           (-180.0 180.0)
  end
  begin
     id 20
     name lwrist
     direction 0.48481 -0.87462 -6.73202e-026   
     length 0.308819   
     axis -180 5.14477e-009 -151   XYZ
    dof rx ry rz
    limits (-180.0 180.0)
           (-180.0 180.0)
           (-180.0 180.0)
  end
  begin
     id 21 
     name lhand
     direction 0.478366 -0.863761 -0.158376   
     length 0.291656   
     axis -180 5.14477e-009 -151   XYZ
    dof rx ry rz
    limits (-180.0 180.0)
           (-180.0 180.0)
           (-180.0 180.0)
  end
  begin
     id 22 
     name rshoulderjoint
     direction -0.981627 -0.190809 0   
     length 0.66654  
     axis 0 -0 11   XYZ 
    dof rx ry rz
    limits (-180.0 180.0)
           (-180.0 180.0)
           (-180.0 180.0)
  end
  begin
     id 23 
     name rhumerus
     direction -0.48481 -0.87462 1.77576e-026  
     length 1.15089   
     axis 180 5.14477e-009 151   XYZ
    dof rx ry rz
    limits (-180.0 180.0)
           (-180.0 180.0)
           (-180.0 180.0)
  end
  begin
     id 24 
     name rradius
     direction -0.48481 -0.87462 3.79421e-026   
     length 0.613887   
     axis 180 5.14477e-009 151   XYZ
    dof rx ry rz
    limits (-180.0 180.0)
           (-180.0 180.0)
           (-180.0 180.0)
  end
  begin
     id 25 
     name rwrist
     direction -0.48481 -0.87462 5.43623e-026   
     length 0.306944   
     axis 180 5.14477e-009 151   XYZ
    dof rx ry rz
    limits (-180.0 180.0)
           (-180.0 180.0)
           (-180.0 180.0)
  end
  begin
     id 26
     name rhand
     direction -0.479273 -0.864638 -0.150661   
     length 0.306429   
     axis 180 5.14477e-009 151   XYZ
    dof rx ry rz
    limits (-180.0 180.0)
           (-180.0 180.0)
           (-180.0 180.0)
  end
:hierarchy
  begin
    root lhipjoint rhipjoint lowerback 
    lhipjoint lfemur
    lfemur ltibia
    ltibia lfoot
    lfoot ltoes
    rhipjoint rfemur
    rfemur rtibia
    rtibia rfoot
    rfoot rtoes
    lowerback upperback
    upperback thorax
    thorax lowerneck lshoulderjoint rshoulderjoint
    lowerneck upperneck
    upperneck head
    lshoulderjoint lhumerus
    lhumerus lradius
    lradius lwrist
    lwrist lhand
    rshoulderjoint rhumerus
    rhumerus rradius
    rradius rwrist
    rwrist rhand
  end

:FULLY-SPECIFIED
:DEGREES
2018
root 8.5049 3.55781 -0.0590097 -184.113 -42.8407 164.435
lowerback -13.949 -0.3684 -0.596912
upperback -3.20815 -0.665367 0.446619
thorax 4.44427 -0.438326 0.681252
lowerneck 13.4908 4.73375 1.87559
upperneck -3.79855 5.88554 -8.0146
head -3.00756 3.22001 -3.11059
rshoulderjoint 1.30699 -3.33823 -32.3958
rhumerus -6.77486 -16.4232 -55.315
rradius 35.6169 -8.26944e-014 2.98177e-014
rwrist 5.65721e-013 9.84359 6.29475e-014
rhand 9.68347 -8.43352 32.2851
lshoulderjoint 3.25956 12.3183 25.9465
lhumerus 0.290789 12.6306 52.4377
lradius 20.8215 -7.95139e-014 3.26007e-014
lwrist 7.50826e-013 -9.24684 2.42488e-013
lhand 25.3976 8.7847 -15.02
rfemur -20.9769 2.8346 7.04145
rtibia 38.7521 -4.77083e-014 -1.27222e-014
rfoot -14.3239 14.5083 -29.4351
rtoes -7.95139e-014 -1.94014e-013 -1.01778e-013
lfemur -14.2779 -23.7485 -16.4885
ltibia 8.38911 -3.18055e-015 1.19271e-014
lfoot -3.78533 -4.00285 6.42909
ltoes -1.76421e-015 -1.03865e-014 -7.31528e-014
2019
root 8.50658 3.55916 -0.067579 -184.666 -44.0605 164.119
lowerback -13.9915 -0.380002 -0.617712
upperback -3.14489 -0.665283 0.356597
thorax 4.5331 -0.435419 0.598117
lowerneck 13.1124 4.58458 2.03885
upperneck -3.68163 5.73643 -7.95141
head -2.91697 3.13529 -3.09485
rshoulderjoint 1.43556 -3.71995 -32.1195
rhumerus -6.61428 -16.0792 -55.2682
rradius 35.6 2.92611e-013 8.18993e-014
rwrist -1.28748e-012 9.70886 3.22677e-015
rhand 9.96286 -8.24952 31.8711
lshoulderjoint 3.25238 12.3079 25.9269
lhumerus 0.483302 12.4741 52.2811
lradius 20.8103 -2.54444e-013 -7.15625e-015
lwrist -1.111e-012 -9.01054 -1.0466e-014
lhand 25.5858 8.58959 -14.8242
rfemur -20.8065 5.06513 6.56711
rtibia 37.7262 0 7.95139e-015
rfoot -14.4211 14.6133 -29.052
rtoes -1.27222e-014 3.81667e-014 -3.81667e-014
lfemur -14.2861 -24.4344 -16.1227
ltibia 8.27486 6.36111e-015 -7.95139e-015
lfoot -3.66258 -3.93348 5.89857
ltoes -3.0265e-014 -3.97569e-016 -6.36111e-015
2020
root 8.50914 3.5601 -0.076162 -185.131 -45.2464 163.795
lowerback -14.0334 -0.570848 -0.865829
upperback -3.28852 -0.896837 0.487158
thorax 4.41374 -0.555135 0.834856
lowerneck 13.6372 4.6437 1.61109
upperneck -3.8625 5.73165 -7.81165
head -3.07148 3.14267 -3.00449
rshoulderjoint 1.23017 -3.10811 -32.6059
rhumerus -6.97504 -15.9628 -55.3725
rradius 35.589 -9.54166e-014 -1.1291e-013
rwrist 8.75506e-013 9.49157 -2.09606e-013
rhand 10.0931 -8.27857 31.4651
lshoulderjoint 3.24319 12.2296 25.976
lhumerus 0.136655 12.6249 52.3599
lradius 20.7797 4.13472e-013 -1.51871e-013
lwrist 4.25391e-013 -9.27218 -5.04749e-013
lhand 25.5731 8.97719 -14.735
rfemur -20.6878 7.47021 5.95244
rtibia 36.7107 1.27222e-014 -2.78299e-015
rfoot -14.5548 14.3683 -28.6981
rtoes -7.15625e-014 3.18055e-015 -6.04305e-014
lfemur -14.3474 -25.084 -15.8411
ltibia 8.2552 6.36111e-015 5.1684e-015
lfoot -3.57911 -3.99477 5.36957
ltoes -4.05024e-014 -1.6201e-014 9.54166e-015
2021
root 8.51141 3.56105 -0.0849245 -185.8 -46.4908 163.372
lowerback -14.085 -0.664466 -0.872978
upperback -3.31771 -1.0174 0.461197
thorax 4.41335 -0.614271 0.79006
lowerneck 13.7833 4.60711 1.44573
upperneck -3.97338 5.66386 -7.62266
head -3.14132 3.10846 -2.92384
rshoulderjoint 1.22744 -3.10081 -32.6085
rhumerus -7.07431 -16.0948 -55.3963
rradius 35.5692 2.73528e-013 -5.24792e-014
rwrist 7.77722e-013 9.38656 -5.44808e-013
rhand 10.4435 -8.03998 30.7538
lshoulderjoint 3.26348 12.234 26.0607
lhumerus 0.123287 12.5687 52.3043
lradius 20.8029 -1.90833e-014 6.99722e-014
lwrist 3.12399e-013 -9.04525 1.9062e-013
lhand 25.6359 8.67466 -14.5697
rfemur -20.5334 9.83357 5.42672
rtibia 35.6562 2.8625e-014 1.98785e-014
rfoot -14.6738 13.9965 -28.1473
rtoes 1.00187e-013 -2.22639e-014 2.76708e-013
lfemur -14.4834 -25.8013 -15.4013
ltibia 8.25917 7.31528e-014 2.54444e-014
lfoot -3.50187 -3.87167 4.8485
ltoes -8.57259e-015 -9.54166e-014 3.08514e-013
2022
root 8.51443 3.56183 -0.0934643 -186.36 -47.7211 162.995
lowerback -14.0566 -0.762794 -0.980397
upperback -3.38098 -1.13174 0.435084
thorax 4.33503 -0.67141 0.804229
lowerneck 13.8916 4.55333 1.43423
upperneck -3.973 5.59611 -7.54489
head -3.16394 3.07362 -2.89771
rshoulderjoint 1.15941 -2.92117 -32.6593
rhumerus -7.29967 -16.0872 -55.393
rradius 35.5901 -1.46306e-013 3.57812e-015
rwrist 7.25138e-014 9.29104 1.77256e-013
rhand 10.5686 -8.03219 30.2513
lshoulderjoint 3.26222 12.1255 26.1816
lhumerus 0.0138769 12.4986 52.2753
lradius 20.7962 2.25819e-013 8.50798e-014
lwrist -8.36797e-014 -8.80122 -1.58911e-014
lhand 25.6112 8.42573 -14.4666
rfemur -20.4004 12.1022 4.8324
rtibia 34.6059 3.18055e-015 -1.05356e-014
rfoot -14.6856 13.8437 -27.1177
rtoes -1.52667e-013 1.24042e-013 -1.04958e-013
lfemur -14.5108 -26.4948 -15.0507
ltibia 8.09347 -1.27222e-014 -2.18663e-014
lfoot -3.3431 -3.839 4.31946
ltoes -1.08362e-013 7.78739e-014 -4.13472e-014
2023
root 8.51772 3.56244 -0.101851 -186.936 -48.9585 162.576
lowerback -13.9714 -0.854193 -1.11382
upperback -3.46894 -1.23424 0.393577
thorax 4.19999 -0.722889 0.820415
lowerneck 14.0002 4.44408 1.42522
upperneck -4.00314 5.45479 -7.45708
head -3.19961 3.00258 -2.86514
rshoulderjoint 1.11637 -2.80432 -32.7174
rhumerus -7.54631 -16.1007 -55.41
rradius 35.6054 -2.54444e-013 -6.75868e-014
rwrist -1.05741e-012 9.1298 3.57571e-013
rhand 10.7282 -7.91443 29.8294
lshoulderjoint 3.27928 12.0609 26.3343
lhumerus -0.0166631 12.0469 52.26
lradius 20.8198 -1.49486e-013 -6.52014e-014
lwrist -6.47029e-013 -8.86944 -1.1488e-013
lhand 25.217 8.67825 -14.5436
rfemur -20.2819 14.4089 4.17249
rtibia 33.5597 3.18055e-015 -2.36554e-014
rfoot -14.6587 13.4072 -25.9941
rtoes -8.11041e-014 2.94201e-013 -1.04958e-013
lfemur -14.538 -27.2057 -14.7055
ltibia 7.88451 -4.77083e-014 -2.8625e-014
lfoot -3.16179 -3.72784 3.77608
ltoes -9.60627e-014 3.39425e-014 -1.97194e-013
2024
root 8.5213 3.56306 -0.11029 -187.471 -50.1497 162.171
lowerback -13.8273 -0.959174 -1.27111
upperback -3.5341 -1.35193 0.391773
thorax 4.05914 -0.78093 0.890305
lowerneck 14.0158 4.39537 1.24426
upperneck -4.03778 5.36546 -7.34285
head -3.22474 2.95694 -2.79754
rshoulderjoint 1.06803 -2.65928 -32.8911
rhumerus -7.73695 -16.037 -55.462
rradius 35.5931 9.22361e-014 7.87187e-014
rwrist -5.02482e-013 9.09349 9.0189e-014
rhand 10.782 -7.92027 29.5712
lshoulderjoint 3.29787 12.1095 26.3591
lhumerus -0.137416 11.9428 52.2221
lradius 20.8746 1.65389e-013 -4.92986e-014
lwrist -5.88711e-013 -8.63256 -2.90837e-013
lhand 25.0531 8.32302 -14.5178
rfemur -20.1559 16.6776 3.48684
rtibia 32.4554 -1.27222e-014 -2.68359e-015
rfoot -14.5727 13.1436 -24.7683
rtoes -6.20208e-014 -4.29375e-014 -3.81667e-014
lfemur -14.5672 -27.8603 -14.3947
ltibia 7.70811 9.54166e-015 -1.19271e-015
lfoot -2.96161 -3.56463 3.20062
ltoes -3.53837e-014 -1.16289e-014 3.49861e-014
2025
root 8.52522 3.56402 -0.118854 -187.883 -51.3033 161.743
lowerback -13.6621 -1.0534 -1.59925
upperback -3.60916 -1.43194 0.355297
thorax 3.89868 -0.821205 1.02779
lowerneck 14.0355 4.31528 1.06422
upperneck -4.06263 5.23498 -7.22479
head -3.24922 2.89051 -2.72625
rshoulderjoint 1.03197 -2.54926 -33.0474
rhumerus -7.94207 -16.0004 -55.481
rradius 35.5385 1.24042e-013 1.59028e-015
rwrist -5.91802e-013 9.05467 -5.47517e-014
rhand 10.83 -7.90977 29.4516
lshoulderjoint 3.29904 12.0895 26.3882
lhumerus -0.135985 11.4369 52.2088
lradius 20.9173 1.59028e-014 -5.725e-014
lwrist -6.30751e-013 -8.76297 -2.14608e-013
lhand 24.5555 8.70769 -14.7276
rfemur -20.085 18.6963 2.67177
rtibia 31.3766 1.90833e-014 -6.31141e-015
rfoot -14.4098 13.0703 -23.3025
rtoes -3.18055e-015 1.84472e-013 4.77083e-014
lfemur -14.5951 -28.4778 -14.2145
ltibia 7.49095 -1.90833e-014 -5.56597e-015
lfoot -2.7742 -3.48801 2.66119
ltoes -7.15128e-014 1.52567e-014 -5.08889e-014
2026
root 8.52964 3.56459 -0.127285 -188.411 -52.4335 161.247
lowerback -13.2965 -1.14299 -1.92111
upperback -3.84439 -1.52548 0.391331
thorax 3.46437 -0.867929 1.24179
lowerneck 14.2163 4.25059 0.818963
upperneck -4.03641 5.10858 -7.10632
head -3.28475 2.8269 -2.64809
rshoulderjoint 0.982517 -2.3915 -33.3425
rhumerus -8.39237 -16.0033 -55.4814
rradius 35.4725 -3.24417e-013 -3.53837e-014
rwrist 9.46968e-013 9.0871 1.6427e-013
rhand 10.84 -7.94624 29.4777
lshoulderjoint 3.31917 12.1195 26.4419
lhumerus -0.523468 11.5844 52.2402
lradius 20.9504 4.54819e-013 -1.00187e-013
lwrist 6.9467e-013 -8.5224 -4.12913e-013
lhand 24.5423 8.18437 -14.711
rfemur -20.0477 20.5226 1.92262
rtibia 30.2874 2.22639e-014 1.69588e-014
rfoot -14.1853 12.9954 -21.7149
rtoes 3.18055e-015 -7.31528e-014 -3.49861e-014
lfemur -14.6746 -29.0794 -13.9559
ltibia 7.2832 -2.8625e-014 -7.95139e-015
lfoot -2.57506 -3.51911 2.13481
ltoes 1.13183e-013 6.95746e-015 -1.24042e-013
2027
root 8.53422 3.56503 -0.135756 -189.025 -53.5562 160.746
lowerback -13.4527 -1.15551 -1.9388
upperback -3.65059 -1.51312 0.219576
thorax 3.74793 -0.859441 1.06876
lowerneck 14.0234 4.08576 0.870958
upperneck -4.22097 4.91374 -6.98008
head -3.32043 2.72833 -2.60415
rshoulderjoint 0.966448 -2.3794 -33.1133
rhumerus -8.18815 -16.1156 -55.5172
rradius 35.3775 1.59028e-014 -8.26944e-014
rwrist 1.76367e-013 9.12497 -1.83615e-013
rhand 10.8128 -7.94895 29.6131
lshoulderjoint 3.29654 11.9921 26.4942
lhumerus -0.108345 11.3566 52.236
lradius 21.0907 -4.40507e-013 4.77083e-014
lwrist 4.50333e-013 -8.59296 4.72315e-013
lhand 24.1442 8.32048 -14.8972
rfemur -19.9849 21.949 1.31443
rtibia 29.2221 -4.77083e-015 -2.37548e-014
rfoot -13.9195 12.8735 -19.9067
rtoes -6.04305e-014 8.42847e-014 -2.54444e-014
lfemur -14.7476 -29.6718 -13.6206
ltibia 7.07673 -3.18055e-015 1.19271e-015
lfoot -2.37815 -3.49544 1.59997
ltoes -6.8413e-014 -1.13307e-014 2.54444e-014
